<svg width="960" height="640" viewBox="0 0 960 640" fill="none" xmlns="http://www.w3.org/2000/svg">
  <rect width="960" height="640" rx="32" fill="#F8FAFF"/>
  <rect x="64" y="64" width="832" height="512" rx="24" fill="#FFFFFF" stroke="#D9E2FF" stroke-width="2"/>
  <rect x="112" y="112" width="736" height="80" rx="16" fill="#0D6EFD" opacity="0.08"/>
  <rect x="152" y="136" width="220" height="32" rx="12" fill="#0D6EFD" opacity="0.55"/>
  <rect x="384" y="136" width="120" height="32" rx="12" fill="#6610F2" opacity="0.35"/>
  <rect x="520" y="136" width="152" height="32" rx="12" fill="#0D6EFD" opacity="0.35"/>
  <rect x="112" y="232" width="348" height="312" rx="20" fill="#0D6EFD" opacity="0.08"/>
  <rect x="160" y="272" width="252" height="24" rx="12" fill="#0D6EFD" opacity="0.6"/>
  <rect x="160" y="312" width="192" height="16" rx="8" fill="#0D6EFD" opacity="0.4"/>
  <rect x="160" y="344" width="220" height="16" rx="8" fill="#0D6EFD" opacity="0.3"/>
  <rect x="160" y="392" width="252" height="120" rx="16" fill="#FFFFFF" stroke="#B3C6FF" stroke-width="2"/>
  <circle cx="220" cy="452" r="36" fill="#0D6EFD" opacity="0.18"/>
  <rect x="280" y="424" width="88" height="16" rx="8" fill="#0D6EFD" opacity="0.45"/>
  <rect x="280" y="452" width="120" height="14" rx="7" fill="#0D6EFD" opacity="0.35"/>
  <rect x="480" y="232" width="336" height="152" rx="20" fill="#FFFFFF" stroke="#B3C6FF" stroke-width="2"/>
  <path d="M520 352C560 296 616 272 664 320C704 360 760 320 792 280" stroke="#0D6EFD" stroke-width="10" stroke-linecap="round" stroke-linejoin="round" opacity="0.8"/>
  <rect x="480" y="408" width="336" height="136" rx="20" fill="#F3F6FF"/>
  <rect x="520" y="440" width="180" height="20" rx="10" fill="#0D6EFD" opacity="0.45"/>
  <rect x="520" y="472" width="240" height="18" rx="9" fill="#0D6EFD" opacity="0.35"/>
  <rect x="520" y="504" width="200" height="18" rx="9" fill="#6610F2" opacity="0.4"/>
</svg>